<svg width="57" height="57" viewBox="0 0 57 57" fill="none" xmlns="http://www.w3.org/2000/svg">
<circle cx="28.5" cy="28.5" r="28.5" fill="black"/>
<g clip-path="url(#clip0_534_122)">
<path d="M19.6192 21.2769C20.4072 20.5038 19.4639 19.5096 19.4497 19.4872C19.8815 21.328 17.6948 20.8126 18.4504 19.647C19.2057 18.4815 18.9379 16.3839 18.9379 16.3839C18.8108 17.0257 17.6864 17.7889 17.6864 17.7889C15.683 18.9532 15.7124 19.934 15.8448 20.3414C15.9195 20.3162 15.9996 20.3025 16.083 20.3025C16.4926 20.3025 16.8247 20.6334 16.8247 21.0415C16.8247 21.3343 16.6537 21.5874 16.4059 21.7068L16.4019 21.7087C16.3397 21.7383 16.2727 21.7596 16.2022 21.7708L16.2028 21.7734C15.5472 21.8813 14.6384 21.017 14.6384 21.017C14.5979 21.9088 15.139 22.3642 15.3231 22.5597C15.4091 22.6512 15.4737 22.6873 15.4737 22.6873C15.3002 22.6943 15.153 22.6783 15.0291 22.6439C13.9534 22.3469 14.3313 20.7839 14.3313 20.7839C13.2196 21.7428 13.6517 22.4894 13.8983 22.9683C13.9986 23.1629 14.1128 23.2954 14.1614 23.347L19.2067 21.6127" fill="#30C4D1"/>
<path d="M19.6192 21.2769C20.4072 20.5038 19.4639 19.5096 19.4497 19.4872C19.8815 21.328 17.6948 20.8126 18.4504 19.647C19.2057 18.4815 18.9379 16.3839 18.9379 16.3839C18.8108 17.0257 17.6864 17.7889 17.6864 17.7889C15.683 18.9532 15.7124 19.934 15.8448 20.3414C15.9195 20.3162 15.9996 20.3025 16.083 20.3025C16.4926 20.3025 16.8247 20.6334 16.8247 21.0415C16.8247 21.3343 16.6537 21.5874 16.4059 21.7068C16.4046 21.7076 16.4033 21.7081 16.4019 21.7087C16.3397 21.7383 16.2727 21.7596 16.2022 21.7708L16.2028 21.7734C15.5472 21.8813 14.6384 21.017 14.6384 21.017C14.5979 21.9088 15.139 22.3642 15.3231 22.5597C15.4091 22.6512 15.4737 22.6873 15.4737 22.6873C15.3002 22.6943 15.153 22.6783 15.0291 22.6439C13.9534 22.3469 14.3313 20.7839 14.3313 20.7839C13.2196 21.7428 13.6517 22.4894 13.8983 22.9683C13.9986 23.1629 14.1128 23.2954 14.1614 23.347L19.2067 21.6127" stroke="#04F6F7" stroke-width="0.238544" stroke-miterlimit="10" stroke-linecap="round" stroke-linejoin="round"/>
<path d="M25.6128 13.2203C25.43 13.2577 25.1731 13.3096 25.0863 13.4826C24.9547 13.7448 25.128 13.876 25.3495 13.876C25.4247 13.876 25.6128 13.7448 25.6128 13.4826C25.6128 13.4826 25.9187 13.6233 25.8156 14.0056C25.7444 14.2693 25.5385 14.4082 25.2217 14.6352H25.2216C25.2199 14.6362 25.2174 14.6376 25.2144 14.6394C24.9066 14.8221 24.7492 15.0874 24.6915 15.1872C24.6358 15.2835 24.4788 15.5623 24.4752 15.9247C24.4692 16.5199 24.8818 17.0444 25.3495 17.2852C25.6573 17.4436 25.9375 17.4524 26.2361 17.4616C26.7854 17.4787 27.2259 17.347 27.4937 17.2431C27.2211 17.6028 26.3795 18.3415 25.0863 18.9898C23.6987 19.6854 22.3728 19.2024 22.156 19.1194V16.6737C22.156 16.6737 20.3254 15.4642 21.529 13.8088C21.529 13.8088 21.8422 14.8579 22.7324 14.841C23.6226 14.8241 24.1227 13.7853 23.097 13.076C23.097 13.076 23.6311 12.1469 25.1146 11.885C26.5661 11.6289 26.3867 10.4588 26.3784 10.4087C26.392 10.4762 26.8418 12.7506 25.6128 13.0892C25.6126 13.0893 25.3495 13.2203 25.6128 13.2203Z" fill="#30C4D1"/>
<path d="M25.6128 13.2203C25.43 13.2577 25.1731 13.3096 25.0863 13.4826C24.9547 13.7448 25.128 13.876 25.3495 13.876C25.4247 13.876 25.6128 13.7448 25.6128 13.4826C25.6128 13.4826 25.9187 13.6233 25.8156 14.0056C25.7444 14.2693 25.5385 14.4082 25.2217 14.6352H25.2216C25.2199 14.6362 25.2174 14.6376 25.2144 14.6394C24.9066 14.8221 24.7492 15.0874 24.6915 15.1872C24.6358 15.2835 24.4788 15.5623 24.4752 15.9247C24.4692 16.5199 24.8818 17.0444 25.3495 17.2852C25.6573 17.4436 25.9375 17.4524 26.2361 17.4616C26.7854 17.4787 27.2259 17.347 27.4937 17.2431C27.2211 17.6028 26.3795 18.3415 25.0863 18.9898C23.6987 19.6854 22.3728 19.2024 22.156 19.1194V16.6737C22.156 16.6737 20.3254 15.4642 21.529 13.8088C21.529 13.8088 21.8422 14.8579 22.7324 14.841C23.6226 14.8241 24.1227 13.7853 23.097 13.076C23.097 13.076 23.6311 12.1469 25.1146 11.885C26.5661 11.6289 26.3867 10.4588 26.3784 10.4087C26.3919 10.4762 26.8418 12.7506 25.6128 13.0892C25.6126 13.0893 25.3495 13.2203 25.6128 13.2203Z" stroke="#04F6F7" stroke-width="0.238544" stroke-miterlimit="10" stroke-linecap="round" stroke-linejoin="round"/>
<path d="M31.2901 13.2048C31.4729 13.2421 31.7299 13.2941 31.8166 13.467C31.9482 13.7293 31.7749 13.8605 31.5534 13.8605C31.4782 13.8605 31.2901 13.7293 31.2901 13.467C31.2901 13.467 30.9842 13.6078 31.0873 13.9901C31.1585 14.2538 31.3644 14.3927 31.6812 14.6196H31.6813C31.683 14.6206 31.6855 14.6221 31.6885 14.6239C31.9963 14.8066 32.1538 15.0719 32.2115 15.1717C32.2671 15.268 32.4241 15.5468 32.4278 15.9092C32.4337 16.5043 32.0211 17.0289 31.5534 17.2697C31.2456 17.4281 30.9655 17.4368 30.6669 17.4461C30.1175 17.4632 29.677 17.3315 29.4092 17.2276C29.6818 17.5873 30.5234 18.326 31.8166 18.9743C33.2043 19.6699 34.5301 19.1869 34.747 19.1038V16.6582C34.747 16.6582 36.5776 15.4487 35.3739 13.7933C35.3739 13.7933 35.0607 14.8424 34.1705 14.8255C33.2803 14.8086 32.7802 13.7698 33.8059 13.0604C33.8059 13.0604 33.2718 12.1313 31.7884 11.8695C30.3368 11.6134 30.5162 10.4433 30.5245 10.3932C30.511 10.4607 30.0611 12.7351 31.2901 13.0737C31.2903 13.0738 31.5534 13.2048 31.2901 13.2048Z" fill="#30C4D1"/>
<path d="M31.2901 13.2048C31.4729 13.2421 31.7299 13.2941 31.8166 13.467C31.9482 13.7293 31.7749 13.8605 31.5534 13.8605C31.4782 13.8605 31.2901 13.7293 31.2901 13.467C31.2901 13.467 30.9842 13.6078 31.0873 13.9901C31.1585 14.2538 31.3644 14.3927 31.6812 14.6196H31.6813C31.683 14.6206 31.6855 14.6221 31.6885 14.6239C31.9963 14.8066 32.1538 15.0719 32.2115 15.1717C32.2671 15.268 32.4241 15.5468 32.4278 15.9092C32.4337 16.5043 32.0211 17.0289 31.5534 17.2697C31.2456 17.4281 30.9655 17.4368 30.6669 17.4461C30.1175 17.4632 29.677 17.3315 29.4092 17.2276C29.6818 17.5873 30.5234 18.326 31.8166 18.9743C33.2043 19.6699 34.5301 19.1869 34.747 19.1038V16.6582C34.747 16.6582 36.5776 15.4486 35.3739 13.7933C35.3739 13.7933 35.0607 14.8424 34.1705 14.8255C33.2803 14.8086 32.7802 13.7698 33.8059 13.0604C33.8059 13.0604 33.2718 12.1313 31.7884 11.8695C30.3368 11.6134 30.5162 10.4433 30.5245 10.3932C30.511 10.4607 30.0611 12.7351 31.2901 13.0737C31.2903 13.0738 31.5534 13.2048 31.2901 13.2048Z" stroke="#04F6F7" stroke-width="0.238544" stroke-miterlimit="10" stroke-linecap="round" stroke-linejoin="round"/>
<path d="M27.4932 21.214L27.6541 25.2789C27.5618 25.4035 27.4375 25.5488 27.2739 25.6933C27.1504 25.8024 27.0302 25.8883 26.9229 25.9556C27.0432 26.0375 27.2067 26.1682 27.3617 26.3635C27.5176 26.5602 27.6076 26.7504 27.6597 26.8864C27.6159 28.2851 27.572 29.6837 27.5281 31.0824L25.8262 25.9556L27.4932 21.214Z" fill="#30C4D1"/>
<path d="M27.4932 21.214L27.6541 25.2789C27.5618 25.4035 27.4375 25.5488 27.2739 25.6933C27.1504 25.8024 27.0302 25.8883 26.9229 25.9556C27.0432 26.0375 27.2067 26.1682 27.3617 26.3635C27.5176 26.5602 27.6076 26.7504 27.6597 26.8864C27.6159 28.2851 27.572 29.6837 27.5281 31.0824L25.8262 25.9556L27.4932 21.214Z" stroke="#04F6F7" stroke-width="0.238544" stroke-miterlimit="10" stroke-linecap="round" stroke-linejoin="round"/>
<path d="M29.4145 21.214L29.2536 25.2789C29.3459 25.4035 29.4702 25.5488 29.6338 25.6933C29.7573 25.8024 29.8776 25.8883 29.9848 25.9556C29.8645 26.0375 29.701 26.1682 29.546 26.3635C29.3901 26.5602 29.3001 26.7504 29.248 26.8864C29.2919 28.2851 29.3357 29.6837 29.3797 31.0824L31.0816 25.9556L29.4145 21.214Z" fill="#30C4D1"/>
<path d="M29.4145 21.214L29.2536 25.2789C29.3459 25.4035 29.4702 25.5488 29.6338 25.6933C29.7573 25.8024 29.8776 25.8883 29.9848 25.9556C29.8645 26.0375 29.701 26.1682 29.546 26.3635C29.3901 26.5602 29.3001 26.7504 29.248 26.8864C29.2919 28.2851 29.3357 29.6837 29.3797 31.0824L31.0816 25.9556L29.4145 21.214Z" stroke="#04F6F7" stroke-width="0.238544" stroke-miterlimit="10" stroke-linecap="round" stroke-linejoin="round"/>
<path d="M37.5786 21.6712L42.6238 23.4056C42.6724 23.3539 42.7866 23.2214 42.8869 23.0268C43.1335 22.5479 43.668 21.7576 42.5562 20.7987C42.5562 20.7987 42.8318 22.4054 41.7562 22.7025C41.6322 22.7369 41.4851 22.7529 41.3115 22.7459C41.3115 22.7459 41.3761 22.7097 41.4621 22.6182C41.6462 22.4227 42.3043 21.9236 42.2638 21.0318C42.2638 21.0318 41.2381 21.9397 40.5825 21.8319L40.5831 21.8293C40.5126 21.8181 40.4456 21.7968 40.3833 21.7672C40.382 21.7666 40.3807 21.7661 40.3793 21.7653C40.1315 21.6459 39.9605 21.3928 39.9605 21.0999C39.9605 20.6919 40.2926 20.361 40.7022 20.361C40.7856 20.361 40.8657 20.3746 40.9405 20.3999C41.0728 19.9925 41.1022 19.0117 39.0989 17.8475C39.0989 17.8475 38.0768 17.0113 37.9497 16.3696C37.9497 16.3696 37.5796 18.54 38.3349 19.7055C39.0904 20.8711 37.0206 21.3283 37.4525 19.4874C37.4383 19.5098 36.378 20.5623 37.166 21.3354" fill="#30C4D1"/>
<path d="M37.5786 21.6712L42.6238 23.4056C42.6724 23.3539 42.7866 23.2214 42.8869 23.0268C43.1335 22.5479 43.668 21.7576 42.5562 20.7987C42.5562 20.7987 42.8318 22.4054 41.7562 22.7025C41.6322 22.7369 41.4851 22.7529 41.3115 22.7459C41.3115 22.7459 41.3761 22.7097 41.4621 22.6182C41.6462 22.4227 42.3043 21.9236 42.2638 21.0318C42.2638 21.0318 41.2381 21.9397 40.5825 21.8319L40.5831 21.8293C40.5126 21.8181 40.4456 21.7968 40.3833 21.7672C40.382 21.7666 40.3807 21.7661 40.3793 21.7653C40.1315 21.6459 39.9605 21.3928 39.9605 21.0999C39.9605 20.6919 40.2926 20.361 40.7022 20.361C40.7856 20.361 40.8657 20.3746 40.9405 20.3999C41.0728 19.9925 41.1022 19.0117 39.0989 17.8475C39.0989 17.8475 38.0768 17.0113 37.9497 16.3696C37.9497 16.3696 37.5796 18.54 38.3349 19.7055C39.0904 20.8711 37.0206 21.3283 37.4525 19.4874C37.4383 19.5098 36.378 20.5623 37.166 21.3354" stroke="#04F6F7" stroke-width="0.238544" stroke-miterlimit="10" stroke-linecap="round" stroke-linejoin="round"/>
<path d="M28.7179 25.9315C28.5007 25.6082 28.4398 25.2742 28.4233 25.051C28.4068 25.2742 28.346 25.6082 28.1287 25.9315C28.0812 26.0022 28.0313 26.0649 27.9814 26.1202C28.0313 26.1821 28.0812 26.2523 28.1287 26.3315C28.346 26.6935 28.4068 27.0675 28.4233 27.3175C28.4398 27.0675 28.5007 26.6935 28.7179 26.3315C28.7655 26.2523 28.8153 26.1821 28.8652 26.1202C28.8153 26.0649 28.7655 26.0022 28.7179 25.9315Z" fill="#30C4D1"/>
<path d="M28.7179 25.9315C28.5007 25.6082 28.4398 25.2742 28.4233 25.051C28.4068 25.2742 28.346 25.6082 28.1287 25.9315C28.0812 26.0022 28.0313 26.0649 27.9814 26.1202C28.0313 26.1821 28.0812 26.2523 28.1287 26.3315C28.346 26.6935 28.4068 27.0675 28.4233 27.3175C28.4398 27.0675 28.5007 26.6935 28.7179 26.3315C28.7655 26.2523 28.8153 26.1821 28.8652 26.1202C28.8153 26.0649 28.7655 26.0022 28.7179 25.9315Z" stroke="#04F6F7" stroke-width="0.238544" stroke-miterlimit="10" stroke-linecap="round" stroke-linejoin="round"/>
<path d="M28.4234 16.732C28.3919 16.5987 28.3109 16.3514 28.0897 16.095C27.8682 15.8383 27.6179 15.7018 27.4902 15.6509C27.5979 15.5536 27.7017 15.443 27.8013 15.3199C28.26 14.7525 28.3884 13.1469 28.4234 12.7552C28.4583 13.1469 28.5867 14.7525 29.0455 15.3199C29.1458 15.4439 29.2512 15.5539 29.3565 15.6509C29.2534 15.676 28.9182 15.7714 28.6697 16.095C28.472 16.3523 28.4332 16.6186 28.4234 16.732Z" fill="#30C4D1"/>
<path d="M28.4234 16.732C28.3919 16.5987 28.3109 16.3514 28.0897 16.095C27.8682 15.8383 27.6179 15.7018 27.4902 15.6509C27.5979 15.5536 27.7017 15.443 27.8013 15.3199C28.26 14.7525 28.3884 13.1469 28.4234 12.7552C28.4583 13.1469 28.5867 14.7525 29.0455 15.3199C29.1458 15.4439 29.2512 15.5539 29.3565 15.6509C29.2534 15.676 28.9182 15.7714 28.6697 16.095C28.472 16.3523 28.4332 16.6186 28.4234 16.732Z" stroke="#04F6F7" stroke-width="0.238544" stroke-miterlimit="10" stroke-linecap="round" stroke-linejoin="round"/>
<path d="M28.775 12.7909C28.5366 12.4961 28.4699 12.1916 28.4517 11.9881C28.4336 12.1916 28.3668 12.4961 28.1285 12.7909C28.128 12.7916 28.1275 12.7922 28.1269 12.7928C28.0452 12.8935 28.2186 13.2598 28.4579 13.2598C28.6972 13.2598 28.8583 12.8935 28.7765 12.7928C28.776 12.7922 28.7755 12.7916 28.775 12.7909Z" fill="#30C4D1"/>
<path d="M28.775 11.109C28.5366 10.8143 28.4699 10.5098 28.4517 10.3063C28.4336 10.5098 28.3668 10.8143 28.1285 11.109C28.128 11.1097 28.1275 11.1103 28.1269 11.111C28.0452 11.2117 28.2186 11.5779 28.4579 11.5779C28.6972 11.5779 28.8583 11.2117 28.7765 11.111C28.776 11.1103 28.7755 11.1097 28.775 11.109Z" stroke="#04F6F7" stroke-width="0.238544" stroke-miterlimit="10" stroke-linecap="round" stroke-linejoin="round"/>
<mask id="path-20-inside-1_534_122" fill="white">
<path d="M37.2753 41.3818C37.1369 41.5692 36.9868 41.6943 36.878 41.7714C37.3926 41.683 37.8234 42.1931 37.8234 42.7132C37.8234 43.233 37.4001 43.6547 36.878 43.6547C36.5468 43.6547 36.2553 43.485 36.0865 43.2278C36.0946 43.2535 36.984 46.0946 35.6929 46.9856C35.6929 46.9856 37.4901 47.0446 39.5246 44.2155C41.5591 41.3861 42.9494 42.8642 42.9494 42.8642V38.6103C42.9494 38.6103 43.2376 37.8728 43.7858 37.7094C43.7858 37.7094 43.1275 37.5181 42.9494 36.7326V30.6433C42.9494 30.6433 43.2292 29.3343 43.8395 29.1315C43.8395 29.1315 43.0511 28.988 42.9494 28.363C42.8477 27.738 42.9494 23.5406 42.9494 23.5406C42.9494 23.5406 44.2369 22.3136 42.533 20.844C42.533 20.844 43.3394 22.9241 41.6609 22.8565C41.6609 22.8565 42.3014 22.377 42.2421 21.0679C42.2421 21.0679 41.5875 22.0504 40.9319 21.9424L40.9324 21.9399C40.8621 21.9287 40.795 21.9074 40.7327 21.8778C40.7313 21.8773 40.7301 21.8766 40.7288 21.876C40.4809 21.7564 40.31 21.5034 40.31 21.2105C40.31 20.8024 40.642 20.4715 41.0517 20.4715C41.1351 20.4715 41.2152 20.4852 41.2899 20.5105C41.4222 20.1031 41.4516 19.1223 39.4483 17.958C39.4483 17.958 38.0496 17.0459 37.9224 16.4041C37.9224 16.4041 37.9289 18.6506 38.6844 19.816C39.4399 20.9816 37.0069 21.3786 37.4392 19.5374C37.4392 19.5374 36.7195 20.665 37.5155 21.4461V23.169C37.5155 23.169 37.5155 23.5743 36.9899 23.9038C36.9899 23.9038 37.5833 24.4274 37.4985 24.6638C37.4138 24.9003 37.4985 27.7803 37.4985 27.7803C37.4985 27.7803 38.3085 28.1519 39.1949 28.9305C39.2625 28.9897 39.3305 29.0515 39.3987 29.1157C39.8942 29.5815 40.396 30.1732 40.7793 30.8967V32.8561C40.7793 32.8561 40.7708 33.2193 39.9739 33.3037C39.9739 33.3037 40.7793 33.5318 40.7793 34.4185V41.4283C40.7793 41.4283 40.0501 41.3017 39.2194 42.0197V30.8376C39.2194 30.8376 39.1668 30.7682 39.069 30.6582C39.0149 30.5971 38.9468 30.5236 38.8662 30.4424C38.5707 30.1445 38.1069 29.7445 37.5409 29.4862C36.9489 29.2161 36.5203 29.0687 36.507 29.0642C36.5281 29.0791 37.5409 29.7922 37.5409 30.77V40.854C37.5007 40.9858 37.4243 41.18 37.2753 41.3818ZM40.2583 24.0399L40.4406 24.2411C40.6626 24.5107 40.7793 24.7483 40.7793 24.7483V27.9999C40.4613 27.3984 40.1344 27.0954 39.8624 26.9461C39.7856 26.9039 39.7133 26.874 39.6466 26.8531C39.3895 26.7725 39.2194 26.8259 39.2194 26.8259V23.4899C39.6509 23.5409 40.0004 23.7822 40.2583 24.0399ZM31.1348 31.8427L31.2805 31.8422L31.2856 27.1204C31.2837 26.4933 31.2849 25.7485 31.2879 24.9921C31.2953 23.0395 31.3134 21.0103 31.3161 20.7338C31.5286 20.5495 31.7003 20.3155 32.1287 20.1284C32.4652 19.9815 32.7728 19.906 33.0138 19.8658V23.337C33.0138 23.337 32.8441 24.1476 32.395 24.5278C32.395 24.5278 33.0901 24.5869 33.0138 25.4905L33.048 33.0838C33.048 33.0838 30.9575 32.8901 29.4062 34.4356C29.4062 34.4356 29.4183 35.9658 29.4501 36.7521C29.4501 36.7521 32.5319 34.4006 33.0153 35.921L32.9771 38.3714C32.4974 38.7526 32.1025 39.6563 32.1007 39.6865C32.2295 39.5532 32.4104 39.4705 32.6109 39.4705C32.8971 39.4705 33.1436 39.6393 33.2558 39.8825C33.2573 39.8828 33.2579 39.8829 33.2579 39.8829C33.6631 40.44 32.2628 43.0184 32.251 43.0404C32.2744 43.0309 35.4607 41.7298 35.0553 38.8354C35.3477 38.8354 35.5003 38.641 35.5797 38.447C35.6593 38.2526 35.6657 38.0584 35.6657 38.0584C35.0468 38.1512 35.0553 37.5516 35.0553 37.5516V35.8118C35.0553 35.6681 35.0977 28.0588 35.0553 27.1804C35.0129 26.3022 35.8263 25.9557 35.8263 25.9557C35.1818 25.7446 35.0553 24.8748 35.0553 24.8748V17.0035C35.0553 17.0035 36.5642 15.517 35.3605 13.8616C35.3605 13.8616 35.369 15.1877 34.4788 15.1707C33.5887 15.1538 33.0885 14.1151 34.1142 13.4056C34.1142 13.4056 33.5802 12.4766 32.0967 12.2148C30.6132 11.9529 30.5114 10.7369 30.5114 10.7369C30.5114 10.7369 30.5446 13.0076 31.7924 13.3511C31.7924 13.3512 31.7927 13.3512 31.7928 13.3512C31.9756 13.3885 32.1132 13.5497 32.1132 13.7429C32.1132 13.9637 31.9335 14.1426 31.712 14.1426C31.5442 14.1426 31.3778 14.0774 31.2767 13.9289C31.269 13.9457 31.2149 14.0669 31.2767 14.1912C31.3165 14.271 31.4084 14.2936 31.4084 14.3223C31.4084 14.4534 31.8032 14.7157 31.8032 14.7157C31.8464 14.7409 31.8831 14.7683 31.9144 14.798C32.3445 15.1135 32.6235 15.6216 32.6235 16.1946C32.6235 17.1521 31.8443 17.9284 30.8832 17.9284C30.5062 17.9284 30.1812 17.7827 29.8721 17.6057C29.8742 17.5933 29.4647 17.3748 29.3769 17.3019L29.3802 25.2041C29.4024 25.3059 29.7133 25.5628 29.9326 25.723C30.1454 25.8785 30.4739 26.0143 30.5724 26.0479C30.5724 26.0479 29.3941 26.3964 29.3941 27.4859C29.3941 28.6952 29.2575 32.9932 29.2599 32.9932C29.3066 32.9148 29.8398 31.9529 31.1348 31.8427ZM27.5796 32.9932C27.5821 32.9932 27.4455 28.6952 27.4455 27.4859C27.4455 26.3964 26.2671 26.0479 26.2671 26.0479C26.3657 26.0143 26.6942 25.8785 26.9069 25.723C27.1263 25.5628 27.4372 25.3059 27.4594 25.2041L27.4626 17.3019C27.3749 17.3748 26.9654 17.5933 26.9675 17.6057C26.6583 17.7827 26.3333 17.9284 25.9564 17.9284C24.9953 17.9284 24.2161 17.1521 24.2161 16.1946C24.2161 15.6216 24.4951 15.1135 24.9252 14.798C24.9565 14.7683 24.9932 14.7409 25.0363 14.7157C25.0363 14.7157 25.4312 14.4534 25.4312 14.3223C25.4312 14.2936 25.523 14.271 25.5628 14.1912C25.6247 14.0669 25.5706 13.9457 25.5628 13.9289C25.4618 14.0774 25.2954 14.1426 25.1276 14.1426C24.9061 14.1426 24.7263 13.9637 24.7263 13.7429C24.7263 13.5497 24.8639 13.3885 25.0468 13.3512C25.0469 13.3512 25.0472 13.3512 25.0472 13.3511C26.2949 13.0076 26.3281 10.7369 26.3281 10.7369C26.3281 10.7369 26.2263 11.9529 24.7428 12.2148C23.2594 12.4766 22.7253 13.4056 22.7253 13.4056C23.7511 14.1151 23.2509 15.1538 22.3607 15.1707C21.4706 15.1877 21.4791 13.8616 21.4791 13.8616C20.2754 15.517 21.7843 17.0035 21.7843 17.0035V24.8748C21.7843 24.8748 21.6578 25.7446 21.0133 25.9557C21.0133 25.9557 21.8267 26.3022 21.7843 27.1804C21.7418 28.0588 21.7843 35.6681 21.7843 35.8118V37.5516C21.7843 37.5516 21.7927 38.1512 21.1739 38.0584C21.1739 38.0584 21.1803 38.2526 21.2599 38.447C21.3392 38.641 21.4919 38.8354 21.7843 38.8354C21.3789 41.7298 24.5652 43.0309 24.5886 43.0404C24.5768 43.0184 23.1765 40.44 23.5817 39.8829C23.5817 39.8829 23.5823 39.8828 23.5837 39.8825C23.696 39.6393 23.9425 39.4705 24.2287 39.4705C24.4292 39.4705 24.6101 39.5532 24.7389 39.6865C24.737 39.6563 24.3421 38.7526 23.8625 38.3714L23.8243 35.921C24.3077 34.4006 27.3895 36.7521 27.3895 36.7521C27.4212 35.9658 27.4334 34.4356 27.4334 34.4356C25.8821 32.8901 23.7915 33.0838 23.7915 33.0838L23.8258 25.4905C23.7494 24.5869 24.4445 24.5278 24.4445 24.5278C23.9954 24.1476 23.8258 23.337 23.8258 23.337V19.8658C24.0668 19.906 24.3743 19.9815 24.7108 20.1284C25.1393 20.3155 25.311 20.5495 25.5235 20.7338C25.5261 21.0103 25.5443 23.0395 25.5517 24.9921C25.5546 25.7485 25.5558 26.4933 25.5539 27.1204L25.5591 31.8422L25.7048 31.8427C26.9998 31.9529 27.533 32.9148 27.5796 32.9932ZM19.2986 40.854V30.77C19.2986 29.7922 20.3115 29.0791 20.3326 29.0642C20.3193 29.0687 19.8906 29.2161 19.2986 29.4862C18.7327 29.7445 18.2688 30.1445 17.9733 30.4424C17.8928 30.5236 17.8247 30.5971 17.7705 30.6582C17.6729 30.7682 17.6202 30.8376 17.6202 30.8376V42.0197C16.7894 41.3017 16.0603 41.4283 16.0603 41.4283V34.4185C16.0603 33.5318 16.8657 33.3037 16.8657 33.3037C16.0689 33.2193 16.0603 32.8561 16.0603 32.8561V30.8967C16.4435 30.1732 16.9454 29.5815 17.4409 29.1157C17.5091 29.0515 17.5771 28.9897 17.6446 28.9305C18.5311 28.1519 19.341 27.7803 19.341 27.7803C19.341 27.7803 19.4258 24.9003 19.341 24.6638C19.2563 24.4274 19.8497 23.9038 19.8497 23.9038C19.3242 23.5743 19.3242 23.169 19.3242 23.169V21.4461C20.1201 20.665 19.4004 19.5374 19.4004 19.5374C19.8327 21.3786 17.3997 20.9816 18.1552 19.816C18.9106 18.6506 18.9172 16.4041 18.9172 16.4041C18.79 17.0459 17.3913 17.958 17.3913 17.958C15.3879 19.1223 15.4174 20.1031 15.5497 20.5105C15.6244 20.4852 15.7045 20.4715 15.7878 20.4715C16.1975 20.4715 16.5295 20.8024 16.5295 21.2105C16.5295 21.5034 16.3587 21.7564 16.1108 21.876C16.1095 21.8766 16.1082 21.8773 16.1069 21.8778C16.0446 21.9074 15.9775 21.9287 15.9071 21.9399L15.9077 21.9424C15.252 22.0504 14.5975 21.0679 14.5975 21.0679C14.5382 22.377 15.1787 22.8565 15.1787 22.8565C13.5002 22.9241 14.3066 20.844 14.3066 20.844C12.6027 22.3136 13.8902 23.5406 13.8902 23.5406C13.8902 23.5406 13.9919 27.738 13.8902 28.363C13.7885 28.988 13 29.1315 13 29.1315C13.6104 29.3343 13.8902 30.6433 13.8902 30.6433V36.7326C13.7121 37.5181 13.0537 37.7094 13.0537 37.7094C13.602 37.8728 13.8902 38.6103 13.8902 38.6103V42.8642C13.8902 42.8642 15.2805 41.3861 17.315 44.2155C19.3494 47.0446 21.1467 46.9856 21.1467 46.9856C19.8556 46.0946 20.745 43.2535 20.753 43.2278C20.5842 43.485 20.2927 43.6547 19.9615 43.6547C19.4394 43.6547 19.0162 43.233 19.0162 42.7132C19.0162 42.1931 19.447 41.683 19.9615 41.7714C19.8528 41.6943 19.7027 41.5692 19.5643 41.3818C19.4153 41.18 19.3389 40.9858 19.2986 40.854ZM17.6202 23.4899V26.8259C17.6202 26.8259 17.4501 26.7725 17.1929 26.8531C17.1263 26.874 17.0539 26.9039 16.9771 26.9461C16.7052 27.0954 16.3783 27.3984 16.0603 27.9999V24.7483C16.0603 24.7483 16.177 24.5107 16.399 24.2411L16.5812 24.0399C16.8391 23.7822 17.1886 23.5409 17.6202 23.4899Z"/>
</mask>
<path d="M37.2753 41.3818C37.1369 41.5692 36.9868 41.6943 36.878 41.7714C37.3926 41.683 37.8234 42.1931 37.8234 42.7132C37.8234 43.233 37.4001 43.6547 36.878 43.6547C36.5468 43.6547 36.2553 43.485 36.0865 43.2278C36.0946 43.2535 36.984 46.0946 35.6929 46.9856C35.6929 46.9856 37.4901 47.0446 39.5246 44.2155C41.5591 41.3861 42.9494 42.8642 42.9494 42.8642V38.6103C42.9494 38.6103 43.2376 37.8728 43.7858 37.7094C43.7858 37.7094 43.1275 37.5181 42.9494 36.7326V30.6433C42.9494 30.6433 43.2292 29.3343 43.8395 29.1315C43.8395 29.1315 43.0511 28.988 42.9494 28.363C42.8477 27.738 42.9494 23.5406 42.9494 23.5406C42.9494 23.5406 44.2369 22.3136 42.533 20.844C42.533 20.844 43.3394 22.9241 41.6609 22.8565C41.6609 22.8565 42.3014 22.377 42.2421 21.0679C42.2421 21.0679 41.5875 22.0504 40.9319 21.9424L40.9324 21.9399C40.8621 21.9287 40.795 21.9074 40.7327 21.8778C40.7313 21.8773 40.7301 21.8766 40.7288 21.876C40.4809 21.7564 40.31 21.5034 40.31 21.2105C40.31 20.8024 40.642 20.4715 41.0517 20.4715C41.1351 20.4715 41.2152 20.4852 41.2899 20.5105C41.4222 20.1031 41.4516 19.1223 39.4483 17.958C39.4483 17.958 38.0496 17.0459 37.9224 16.4041C37.9224 16.4041 37.9289 18.6506 38.6844 19.816C39.4399 20.9816 37.0069 21.3786 37.4392 19.5374C37.4392 19.5374 36.7195 20.665 37.5155 21.4461V23.169C37.5155 23.169 37.5155 23.5743 36.9899 23.9038C36.9899 23.9038 37.5833 24.4274 37.4985 24.6638C37.4138 24.9003 37.4985 27.7803 37.4985 27.7803C37.4985 27.7803 38.3085 28.1519 39.1949 28.9305C39.2625 28.9897 39.3305 29.0515 39.3987 29.1157C39.8942 29.5815 40.396 30.1732 40.7793 30.8967V32.8561C40.7793 32.8561 40.7708 33.2193 39.9739 33.3037C39.9739 33.3037 40.7793 33.5318 40.7793 34.4185V41.4283C40.7793 41.4283 40.0501 41.3017 39.2194 42.0197V30.8376C39.2194 30.8376 39.1668 30.7682 39.069 30.6582C39.0149 30.5971 38.9468 30.5236 38.8662 30.4424C38.5707 30.1445 38.1069 29.7445 37.5409 29.4862C36.9489 29.2161 36.5203 29.0687 36.507 29.0642C36.5281 29.0791 37.5409 29.7922 37.5409 30.77V40.854C37.5007 40.9858 37.4243 41.18 37.2753 41.3818ZM40.2583 24.0399L40.4406 24.2411C40.6626 24.5107 40.7793 24.7483 40.7793 24.7483V27.9999C40.4613 27.3984 40.1344 27.0954 39.8624 26.9461C39.7856 26.9039 39.7133 26.874 39.6466 26.8531C39.3895 26.7725 39.2194 26.8259 39.2194 26.8259V23.4899C39.6509 23.5409 40.0004 23.7822 40.2583 24.0399ZM31.1348 31.8427L31.2805 31.8422L31.2856 27.1204C31.2837 26.4933 31.2849 25.7485 31.2879 24.9921C31.2953 23.0395 31.3134 21.0103 31.3161 20.7338C31.5286 20.5495 31.7003 20.3155 32.1287 20.1284C32.4652 19.9815 32.7728 19.906 33.0138 19.8658V23.337C33.0138 23.337 32.8441 24.1476 32.395 24.5278C32.395 24.5278 33.0901 24.5869 33.0138 25.4905L33.048 33.0838C33.048 33.0838 30.9575 32.8901 29.4062 34.4356C29.4062 34.4356 29.4183 35.9658 29.4501 36.7521C29.4501 36.7521 32.5319 34.4006 33.0153 35.921L32.9771 38.3714C32.4974 38.7526 32.1025 39.6563 32.1007 39.6865C32.2295 39.5532 32.4104 39.4705 32.6109 39.4705C32.8971 39.4705 33.1436 39.6393 33.2558 39.8825C33.2573 39.8828 33.2579 39.8829 33.2579 39.8829C33.6631 40.44 32.2628 43.0184 32.251 43.0404C32.2744 43.0309 35.4607 41.7298 35.0553 38.8354C35.3477 38.8354 35.5003 38.641 35.5797 38.447C35.6593 38.2526 35.6657 38.0584 35.6657 38.0584C35.0468 38.1512 35.0553 37.5516 35.0553 37.5516V35.8118C35.0553 35.6681 35.0977 28.0588 35.0553 27.1804C35.0129 26.3022 35.8263 25.9557 35.8263 25.9557C35.1818 25.7446 35.0553 24.8748 35.0553 24.8748V17.0035C35.0553 17.0035 36.5642 15.517 35.3605 13.8616C35.3605 13.8616 35.369 15.1877 34.4788 15.1707C33.5887 15.1538 33.0885 14.1151 34.1142 13.4056C34.1142 13.4056 33.5802 12.4766 32.0967 12.2148C30.6132 11.9529 30.5114 10.7369 30.5114 10.7369C30.5114 10.7369 30.5446 13.0076 31.7924 13.3511C31.7924 13.3512 31.7927 13.3512 31.7928 13.3512C31.9756 13.3885 32.1132 13.5497 32.1132 13.7429C32.1132 13.9637 31.9335 14.1426 31.712 14.1426C31.5442 14.1426 31.3778 14.0774 31.2767 13.9289C31.269 13.9457 31.2149 14.0669 31.2767 14.1912C31.3165 14.271 31.4084 14.2936 31.4084 14.3223C31.4084 14.4534 31.8032 14.7157 31.8032 14.7157C31.8464 14.7409 31.8831 14.7683 31.9144 14.798C32.3445 15.1135 32.6235 15.6216 32.6235 16.1946C32.6235 17.1521 31.8443 17.9284 30.8832 17.9284C30.5062 17.9284 30.1812 17.7827 29.8721 17.6057C29.8742 17.5933 29.4647 17.3748 29.3769 17.3019L29.3802 25.2041C29.4024 25.3059 29.7133 25.5628 29.9326 25.723C30.1454 25.8785 30.4739 26.0143 30.5724 26.0479C30.5724 26.0479 29.3941 26.3964 29.3941 27.4859C29.3941 28.6952 29.2575 32.9932 29.2599 32.9932C29.3066 32.9148 29.8398 31.9529 31.1348 31.8427ZM27.5796 32.9932C27.5821 32.9932 27.4455 28.6952 27.4455 27.4859C27.4455 26.3964 26.2671 26.0479 26.2671 26.0479C26.3657 26.0143 26.6942 25.8785 26.9069 25.723C27.1263 25.5628 27.4372 25.3059 27.4594 25.2041L27.4626 17.3019C27.3749 17.3748 26.9654 17.5933 26.9675 17.6057C26.6583 17.7827 26.3333 17.9284 25.9564 17.9284C24.9953 17.9284 24.2161 17.1521 24.2161 16.1946C24.2161 15.6216 24.4951 15.1135 24.9252 14.798C24.9565 14.7683 24.9932 14.7409 25.0363 14.7157C25.0363 14.7157 25.4312 14.4534 25.4312 14.3223C25.4312 14.2936 25.523 14.271 25.5628 14.1912C25.6247 14.0669 25.5706 13.9457 25.5628 13.9289C25.4618 14.0774 25.2954 14.1426 25.1276 14.1426C24.9061 14.1426 24.7263 13.9637 24.7263 13.7429C24.7263 13.5497 24.8639 13.3885 25.0468 13.3512C25.0469 13.3512 25.0472 13.3512 25.0472 13.3511C26.2949 13.0076 26.3281 10.7369 26.3281 10.7369C26.3281 10.7369 26.2263 11.9529 24.7428 12.2148C23.2594 12.4766 22.7253 13.4056 22.7253 13.4056C23.7511 14.1151 23.2509 15.1538 22.3607 15.1707C21.4706 15.1877 21.4791 13.8616 21.4791 13.8616C20.2754 15.517 21.7843 17.0035 21.7843 17.0035V24.8748C21.7843 24.8748 21.6578 25.7446 21.0133 25.9557C21.0133 25.9557 21.8267 26.3022 21.7843 27.1804C21.7418 28.0588 21.7843 35.6681 21.7843 35.8118V37.5516C21.7843 37.5516 21.7927 38.1512 21.1739 38.0584C21.1739 38.0584 21.1803 38.2526 21.2599 38.447C21.3392 38.641 21.4919 38.8354 21.7843 38.8354C21.3789 41.7298 24.5652 43.0309 24.5886 43.0404C24.5768 43.0184 23.1765 40.44 23.5817 39.8829C23.5817 39.8829 23.5823 39.8828 23.5837 39.8825C23.696 39.6393 23.9425 39.4705 24.2287 39.4705C24.4292 39.4705 24.6101 39.5532 24.7389 39.6865C24.737 39.6563 24.3421 38.7526 23.8625 38.3714L23.8243 35.921C24.3077 34.4006 27.3895 36.7521 27.3895 36.7521C27.4212 35.9658 27.4334 34.4356 27.4334 34.4356C25.8821 32.8901 23.7915 33.0838 23.7915 33.0838L23.8258 25.4905C23.7494 24.5869 24.4445 24.5278 24.4445 24.5278C23.9954 24.1476 23.8258 23.337 23.8258 23.337V19.8658C24.0668 19.906 24.3743 19.9815 24.7108 20.1284C25.1393 20.3155 25.311 20.5495 25.5235 20.7338C25.5261 21.0103 25.5443 23.0395 25.5517 24.9921C25.5546 25.7485 25.5558 26.4933 25.5539 27.1204L25.5591 31.8422L25.7048 31.8427C26.9998 31.9529 27.533 32.9148 27.5796 32.9932ZM19.2986 40.854V30.77C19.2986 29.7922 20.3115 29.0791 20.3326 29.0642C20.3193 29.0687 19.8906 29.2161 19.2986 29.4862C18.7327 29.7445 18.2688 30.1445 17.9733 30.4424C17.8928 30.5236 17.8247 30.5971 17.7705 30.6582C17.6729 30.7682 17.6202 30.8376 17.6202 30.8376V42.0197C16.7894 41.3017 16.0603 41.4283 16.0603 41.4283V34.4185C16.0603 33.5318 16.8657 33.3037 16.8657 33.3037C16.0689 33.2193 16.0603 32.8561 16.0603 32.8561V30.8967C16.4435 30.1732 16.9454 29.5815 17.4409 29.1157C17.5091 29.0515 17.5771 28.9897 17.6446 28.9305C18.5311 28.1519 19.341 27.7803 19.341 27.7803C19.341 27.7803 19.4258 24.9003 19.341 24.6638C19.2563 24.4274 19.8497 23.9038 19.8497 23.9038C19.3242 23.5743 19.3242 23.169 19.3242 23.169V21.4461C20.1201 20.665 19.4004 19.5374 19.4004 19.5374C19.8327 21.3786 17.3997 20.9816 18.1552 19.816C18.9106 18.6506 18.9172 16.4041 18.9172 16.4041C18.79 17.0459 17.3913 17.958 17.3913 17.958C15.3879 19.1223 15.4174 20.1031 15.5497 20.5105C15.6244 20.4852 15.7045 20.4715 15.7878 20.4715C16.1975 20.4715 16.5295 20.8024 16.5295 21.2105C16.5295 21.5034 16.3587 21.7564 16.1108 21.876C16.1095 21.8766 16.1082 21.8773 16.1069 21.8778C16.0446 21.9074 15.9775 21.9287 15.9071 21.9399L15.9077 21.9424C15.252 22.0504 14.5975 21.0679 14.5975 21.0679C14.5382 22.377 15.1787 22.8565 15.1787 22.8565C13.5002 22.9241 14.3066 20.844 14.3066 20.844C12.6027 22.3136 13.8902 23.5406 13.8902 23.5406C13.8902 23.5406 13.9919 27.738 13.8902 28.363C13.7885 28.988 13 29.1315 13 29.1315C13.6104 29.3343 13.8902 30.6433 13.8902 30.6433V36.7326C13.7121 37.5181 13.0537 37.7094 13.0537 37.7094C13.602 37.8728 13.8902 38.6103 13.8902 38.6103V42.8642C13.8902 42.8642 15.2805 41.3861 17.315 44.2155C19.3494 47.0446 21.1467 46.9856 21.1467 46.9856C19.8556 46.0946 20.745 43.2535 20.753 43.2278C20.5842 43.485 20.2927 43.6547 19.9615 43.6547C19.4394 43.6547 19.0162 43.233 19.0162 42.7132C19.0162 42.1931 19.447 41.683 19.9615 41.7714C19.8528 41.6943 19.7027 41.5692 19.5643 41.3818C19.4153 41.18 19.3389 40.9858 19.2986 40.854ZM17.6202 23.4899V26.8259C17.6202 26.8259 17.4501 26.7725 17.1929 26.8531C17.1263 26.874 17.0539 26.9039 16.9771 26.9461C16.7052 27.0954 16.3783 27.3984 16.0603 27.9999V24.7483C16.0603 24.7483 16.177 24.5107 16.399 24.2411L16.5812 24.0399C16.8391 23.7822 17.1886 23.5409 17.6202 23.4899Z" fill="white" stroke="#04F6F7" stroke-opacity="0.2" stroke-width="2" mask="url(#path-20-inside-1_534_122)"/>
</g>
<defs>
<clipPath id="clip0_534_122">
<rect width="31" height="37" fill="white" transform="translate(13 10)"/>
</clipPath>
</defs>
</svg>
